<svg xmlns="http://www.w3.org/2000/svg" xmlns:xlink="http://www.w3.org/1999/xlink" width="500" zoomAndPan="magnify" viewBox="0 0 375 374.999991" height="500" preserveAspectRatio="xMidYMid meet" version="1.0"><defs><g/></defs><g fill="#000000" fill-opacity="1"><g transform="translate(23.094534, 212.52449)"><g><path d="M 26.332031 0 L 44.242188 0 L 44.242188 -65.238281 C 58.003906 -65.238281 67.609375 -56.699219 67.609375 -44.363281 L 68.796875 -44.363281 L 68.796875 -66.425781 L 1.777344 -66.425781 L 1.777344 -44.363281 L 2.964844 -44.363281 C 2.964844 -56.699219 12.574219 -65.238281 26.332031 -65.238281 Z M 26.332031 0 "/></g></g></g><g fill="#000000" fill-opacity="1"><g transform="translate(93.665248, 212.52449)"><g><path d="M 36.890625 -49.464844 C 30.484375 -49.464844 26.214844 -46.617188 23.25 -41.632812 L 23.25 -48.394531 L 5.929688 -48.394531 L 5.929688 0 L 23.25 0 L 23.25 -39.261719 C 25.859375 -44.480469 29.652344 -47.683594 34.160156 -47.683594 C 37.601562 -47.683594 39.972656 -44.71875 39.972656 -41.042969 C 39.972656 -35.347656 33.925781 -32.261719 33.925781 -32.261719 C 34.160156 -29.296875 37.007812 -25.265625 41.753906 -25.265625 C 48.75 -25.265625 51.242188 -31.078125 51.242188 -36.058594 C 51.242188 -45.785156 44.007812 -49.464844 36.890625 -49.464844 Z M 36.890625 -49.464844 "/></g></g></g><g fill="#000000" fill-opacity="1"><g transform="translate(146.682189, 212.52449)"><g><path d="M 29.179688 1.1875 C 43.652344 1.1875 55.394531 -10.082031 55.394531 -24.199219 C 55.394531 -38.195312 43.652344 -49.464844 29.179688 -49.464844 C 14.707031 -49.464844 2.964844 -38.195312 2.964844 -24.199219 C 2.964844 -10.082031 14.707031 1.1875 29.179688 1.1875 Z M 29.179688 0 C 22.65625 0 20.285156 -10.4375 20.285156 -24.199219 C 20.285156 -37.957031 22.65625 -48.394531 29.179688 -48.394531 C 35.347656 -48.394531 38.074219 -37.957031 38.074219 -24.199219 C 38.074219 -10.4375 35.820312 0 29.179688 0 Z M 29.179688 0 "/></g></g></g><g fill="#000000" fill-opacity="1"><g transform="translate(205.036454, 212.52449)"><g><path d="M 15.183594 -54.917969 C 20.402344 -54.917969 24.554688 -59.070312 24.554688 -64.289062 C 24.554688 -69.390625 20.402344 -73.542969 15.183594 -73.542969 C 10.082031 -73.542969 5.929688 -69.390625 5.929688 -64.289062 C 5.929688 -59.070312 10.082031 -54.917969 15.183594 -54.917969 Z M 6.523438 0 L 23.84375 0 L 23.84375 -48.277344 L 6.523438 -48.394531 Z M 6.523438 0 "/></g></g></g><g fill="#000000" fill-opacity="1"><g transform="translate(235.518261, 212.52449)"><g><path d="M 14.234375 1.1875 C 18.742188 1.1875 22.417969 -2.492188 22.417969 -7.117188 C 22.417969 -11.742188 18.742188 -15.421875 14.234375 -15.421875 C 9.609375 -15.421875 5.929688 -11.742188 5.929688 -7.117188 C 5.929688 -2.492188 9.609375 1.1875 14.234375 1.1875 Z M 14.234375 1.1875 "/></g></g></g><g fill="#000000" fill-opacity="1"><g transform="translate(263.865139, 212.52449)"><g><path d="M 17.199219 1.1875 C 23.605469 1.1875 30.128906 -3.675781 32.855469 -8.183594 C 33.449219 -2.847656 37.839844 1.1875 43.414062 1.1875 C 49.582031 1.1875 54.5625 -3.796875 54.5625 -9.964844 L 53.613281 -10.082031 C 53.378906 -6.640625 52.785156 -6.050781 51.953125 -6.050781 C 50.410156 -6.050781 50.054688 -7.949219 50.054688 -10.082031 L 50.054688 -29.773438 C 50.054688 -35.703125 47.566406 -40.328125 43.53125 -43.652344 C 38.90625 -47.445312 32.621094 -49.464844 25.027344 -49.464844 C 13.996094 -49.464844 5.101562 -43.769531 5.101562 -36.535156 C 5.101562 -32.144531 7.828125 -27.636719 13.996094 -28.230469 C 17.792969 -28.585938 20.640625 -31.90625 20.640625 -34.160156 C 20.640625 -34.160156 16.84375 -35.109375 16.84375 -40.683594 C 16.84375 -46.261719 20.640625 -48.15625 24.910156 -48.15625 C 29.296875 -48.15625 32.738281 -45.191406 32.738281 -39.617188 L 32.738281 -31.078125 C 16.25 -23.25 2.964844 -22.417969 2.964844 -10.199219 C 2.964844 -3.796875 9.015625 1.1875 17.199219 1.1875 Z M 25.148438 -5.574219 C 21.824219 -5.574219 19.453125 -9.015625 19.453125 -12.691406 C 19.453125 -21.113281 24.554688 -25.265625 32.738281 -30.011719 L 32.738281 -9.371094 C 30.722656 -6.878906 28.347656 -5.574219 25.148438 -5.574219 Z M 25.148438 -5.574219 "/></g></g></g><g fill="#000000" fill-opacity="1"><g transform="translate(321.389106, 212.52449)"><g><path d="M 15.183594 -54.917969 C 20.402344 -54.917969 24.554688 -59.070312 24.554688 -64.289062 C 24.554688 -69.390625 20.402344 -73.542969 15.183594 -73.542969 C 10.082031 -73.542969 5.929688 -69.390625 5.929688 -64.289062 C 5.929688 -59.070312 10.082031 -54.917969 15.183594 -54.917969 Z M 6.523438 0 L 23.84375 0 L 23.84375 -48.277344 L 6.523438 -48.394531 Z M 6.523438 0 "/></g></g></g></svg>